# Blender 4.3.0
# www.blender.org
mtllib SO7_Bean.mtl
o Cube
v -0.494391 0.494391 0.494391
v -0.494391 0.494391 -0.494391
v 0.494391 0.494391 0.494391
v 0.494391 0.494391 -0.494391
v -0.605503 0.000000 0.605503
v -0.595833 0.152428 0.595833
v -0.568592 0.294402 0.568592
v -0.529773 0.414666 0.529773
v -0.529773 0.529773 0.414666
v -0.568592 0.568592 0.294403
v -0.595833 0.595832 0.152428
v -0.605503 0.605503 0.000000
v -0.595833 0.595832 -0.152428
v -0.568592 0.568592 -0.294403
v -0.529773 0.529773 -0.414666
v -0.529773 0.414666 -0.529773
v -0.568592 0.294402 -0.568592
v -0.595833 0.152428 -0.595833
v -0.605503 0.000000 -0.605503
v -0.414666 0.529773 -0.529773
v -0.294403 0.568592 -0.568592
v -0.152428 0.595832 -0.595833
v -0.000000 0.605503 -0.605503
v 0.152428 0.595832 -0.595833
v 0.294403 0.568592 -0.568592
v 0.414666 0.529773 -0.529773
v 0.529773 0.414666 -0.529773
v 0.568592 0.294402 -0.568592
v 0.595833 0.152428 -0.595833
v 0.605503 0.000000 -0.605503
v 0.529773 0.529773 -0.414666
v 0.568592 0.568592 -0.294402
v 0.595833 0.595832 -0.152428
v 0.605503 0.605503 0.000000
v 0.595833 0.595833 0.152428
v 0.568592 0.568592 0.294403
v 0.529773 0.529773 0.414666
v 0.529773 0.414666 0.529773
v 0.568592 0.294402 0.568592
v 0.595833 0.152428 0.595833
v 0.605503 0.000000 0.605503
v 0.414666 0.529773 0.529773
v 0.294402 0.568592 0.568592
v 0.152428 0.595832 0.595833
v -0.000000 0.605503 0.605503
v -0.152428 0.595832 0.595833
v -0.294403 0.568592 0.568592
v -0.414666 0.529773 0.529773
v -0.708466 0.000000 0.480981
v -0.696416 0.155731 0.473306
v -0.661028 0.301566 0.453174
v -0.605434 0.428203 0.428203
v -0.787775 0.000000 0.335674
v -0.773158 0.162909 0.330083
v -0.729951 0.316574 0.316574
v -0.661028 0.453174 0.301566
v -0.838669 0.000000 0.172920
v -0.821923 0.169868 0.169868
v -0.773158 0.330083 0.162909
v -0.696417 0.473306 0.155731
v -0.856310 0.000000 0.000000
v -0.838669 0.172920 0.000000
v -0.787775 0.335674 0.000000
v -0.708466 0.480981 0.000000
v -0.838669 0.000000 -0.172920
v -0.821923 0.169868 -0.169868
v -0.773158 0.330083 -0.162909
v -0.696417 0.473306 -0.155731
v -0.787775 0.000000 -0.335674
v -0.773158 0.162909 -0.330083
v -0.729951 0.316574 -0.316574
v -0.661028 0.453174 -0.301566
v -0.708466 0.000000 -0.480981
v -0.696417 0.155731 -0.473306
v -0.661028 0.301566 -0.453174
v -0.605434 0.428203 -0.428204
v -0.480981 0.000000 -0.708466
v -0.473306 0.155731 -0.696416
v -0.453174 0.301566 -0.661028
v -0.428203 0.428203 -0.605434
v -0.335674 0.000000 -0.787775
v -0.330083 0.162909 -0.773158
v -0.316574 0.316574 -0.729951
v -0.301566 0.453174 -0.661028
v -0.172920 0.000000 -0.838669
v -0.169868 0.169868 -0.821923
v -0.162909 0.330083 -0.773158
v -0.155731 0.473307 -0.696417
v 0.000000 0.000000 -0.856310
v 0.000000 0.172920 -0.838669
v -0.000000 0.335674 -0.787775
v -0.000000 0.480981 -0.708466
v 0.172920 0.000000 -0.838669
v 0.169868 0.169868 -0.821923
v 0.162909 0.330083 -0.773158
v 0.155731 0.473306 -0.696417
v 0.335674 0.000000 -0.787775
v 0.330083 0.162909 -0.773158
v 0.316574 0.316574 -0.729951
v 0.301566 0.453174 -0.661028
v 0.480981 0.000000 -0.708466
v 0.473306 0.155731 -0.696417
v 0.453174 0.301566 -0.661028
v 0.428204 0.428203 -0.605434
v 0.708466 0.000000 -0.480981
v 0.696416 0.155731 -0.473306
v 0.661028 0.301566 -0.453174
v 0.605434 0.428203 -0.428203
v 0.787775 0.000000 -0.335674
v 0.773158 0.162909 -0.330083
v 0.729951 0.316574 -0.316574
v 0.661028 0.453174 -0.301566
v 0.838669 0.000000 -0.172920
v 0.821923 0.169868 -0.169868
v 0.773158 0.330083 -0.162909
v 0.696417 0.473307 -0.155731
v 0.856310 0.000000 0.000000
v 0.838669 0.172920 0.000000
v 0.787775 0.335674 -0.000000
v 0.708466 0.480981 -0.000000
v 0.838669 0.000000 0.172920
v 0.821923 0.169868 0.169868
v 0.773158 0.330083 0.162909
v 0.696417 0.473306 0.155731
v 0.787775 0.000000 0.335674
v 0.773158 0.162909 0.330083
v 0.729951 0.316574 0.316574
v 0.661028 0.453174 0.301566
v 0.708466 0.000000 0.480981
v 0.696417 0.155731 0.473306
v 0.661028 0.301566 0.453174
v 0.605434 0.428203 0.428204
v 0.480981 0.000000 0.708466
v 0.473306 0.155731 0.696416
v 0.453174 0.301566 0.661028
v 0.428203 0.428203 0.605434
v 0.335674 0.000000 0.787775
v 0.330083 0.162909 0.773158
v 0.316574 0.316574 0.729951
v 0.301566 0.453174 0.661028
v 0.172920 0.000000 0.838669
v 0.169868 0.169868 0.821923
v 0.162909 0.330083 0.773158
v 0.155731 0.473307 0.696417
v -0.000000 0.000000 0.856310
v -0.000000 0.172920 0.838669
v 0.000000 0.335674 0.787775
v 0.000000 0.480981 0.708466
v -0.172920 0.000000 0.838669
v -0.169868 0.169868 0.821923
v -0.162909 0.330083 0.773158
v -0.155731 0.473306 0.696417
v -0.335674 0.000000 0.787775
v -0.330083 0.162909 0.773158
v -0.316574 0.316574 0.729951
v -0.301566 0.453174 0.661028
v -0.480981 0.000000 0.708466
v -0.473306 0.155731 0.696417
v -0.453174 0.301566 0.661028
v -0.428204 0.428203 0.605434
v 0.428203 0.605434 -0.428204
v 0.301566 0.661028 -0.453174
v 0.155731 0.696416 -0.473306
v 0.000000 0.708466 -0.480981
v -0.155731 0.696416 -0.473306
v -0.301566 0.661028 -0.453174
v -0.428203 0.605434 -0.428204
v 0.453174 0.661028 -0.301566
v 0.316574 0.729951 -0.316574
v 0.162909 0.773158 -0.330083
v 0.000000 0.787775 -0.335674
v -0.162909 0.773158 -0.330083
v -0.316574 0.729951 -0.316574
v -0.453174 0.661028 -0.301566
v 0.473306 0.696416 -0.155731
v 0.330083 0.773158 -0.162909
v 0.169868 0.821923 -0.169868
v 0.000000 0.838669 -0.172920
v -0.169868 0.821923 -0.169868
v -0.330083 0.773158 -0.162909
v -0.473306 0.696416 -0.155731
v 0.480981 0.708466 0.000000
v 0.335674 0.787775 0.000000
v 0.172920 0.838669 0.000000
v -0.000000 0.856310 0.000000
v -0.172920 0.838669 0.000000
v -0.335674 0.787775 -0.000000
v -0.480981 0.708466 0.000000
v 0.473306 0.696416 0.155731
v 0.330083 0.773158 0.162909
v 0.169868 0.821923 0.169868
v -0.000000 0.838669 0.172920
v -0.169868 0.821923 0.169868
v -0.330083 0.773158 0.162909
v -0.473306 0.696416 0.155731
v 0.453174 0.661028 0.301566
v 0.316574 0.729951 0.316574
v 0.162909 0.773158 0.330083
v -0.000000 0.787775 0.335674
v -0.162909 0.773158 0.330083
v -0.316574 0.729951 0.316574
v -0.453174 0.661028 0.301566
v 0.428204 0.605434 0.428203
v 0.301566 0.661028 0.453174
v 0.155731 0.696416 0.473306
v -0.000000 0.708466 0.480981
v -0.155731 0.696416 0.473306
v -0.301566 0.661028 0.453174
v -0.428204 0.605434 0.428204
v -0.494391 -3.984248 -0.494391
v -0.529773 -4.019630 -0.414666
v -0.568592 -4.058449 -0.294403
v -0.595833 -4.085689 -0.152428
v -0.605503 -4.095359 -0.000000
v -0.595833 -4.085690 0.152428
v -0.568592 -4.058449 0.294402
v -0.529773 -4.019630 0.414666
v -0.494391 -3.984248 0.494391
v -0.529773 -3.904523 0.529773
v -0.568592 -3.784259 0.568592
v -0.595833 -3.642285 0.595832
v -0.605503 -3.489857 0.605503
v -0.605503 -3.489857 -0.605503
v -0.595833 -3.642285 -0.595833
v -0.568592 -3.784259 -0.568592
v -0.529773 -3.904523 -0.529773
v 0.494391 -3.984248 -0.494391
v 0.414666 -4.019630 -0.529773
v 0.294402 -4.058449 -0.568592
v 0.152428 -4.085690 -0.595833
v -0.000000 -4.095359 -0.605503
v -0.152428 -4.085690 -0.595833
v -0.294403 -4.058449 -0.568592
v -0.414666 -4.019630 -0.529773
v 0.605503 -3.489857 -0.605503
v 0.595832 -3.642285 -0.595833
v 0.568592 -3.784259 -0.568592
v 0.529773 -3.904523 -0.529773
v 0.494391 -3.984248 0.494391
v 0.529773 -4.019630 0.414666
v 0.568592 -4.058449 0.294402
v 0.595832 -4.085690 0.152428
v 0.605503 -4.095359 -0.000000
v 0.595832 -4.085690 -0.152428
v 0.568592 -4.058449 -0.294403
v 0.529773 -4.019630 -0.414666
v 0.605503 -3.489857 0.605503
v 0.595832 -3.642284 0.595832
v 0.568592 -3.784259 0.568592
v 0.529773 -3.904523 0.529773
v -0.414666 -4.019630 0.529773
v -0.294403 -4.058449 0.568592
v -0.152428 -4.085690 0.595832
v -0.000000 -4.095359 0.605503
v 0.152428 -4.085690 0.595832
v 0.294402 -4.058449 0.568592
v 0.414666 -4.019630 0.529773
v -0.605434 -3.918060 0.428203
v -0.661028 -3.791423 0.453174
v -0.696417 -3.645588 0.473306
v -0.708466 -3.489857 0.480981
v -0.661028 -3.943030 0.301566
v -0.729951 -3.806431 0.316574
v -0.773158 -3.652766 0.330083
v -0.787775 -3.489857 0.335674
v -0.696417 -3.963163 0.155731
v -0.773158 -3.819940 0.162909
v -0.821923 -3.659725 0.169868
v -0.838669 -3.489857 0.172920
v -0.708466 -3.970838 -0.000000
v -0.787775 -3.825531 -0.000000
v -0.838669 -3.662777 -0.000000
v -0.856310 -3.489857 -0.000000
v -0.696417 -3.963163 -0.155731
v -0.773158 -3.819940 -0.162909
v -0.821923 -3.659725 -0.169868
v -0.838669 -3.489857 -0.172920
v -0.661028 -3.943030 -0.301566
v -0.729951 -3.806431 -0.316574
v -0.773158 -3.652766 -0.330083
v -0.787775 -3.489857 -0.335674
v -0.605434 -3.918060 -0.428204
v -0.661029 -3.791423 -0.453174
v -0.696417 -3.645588 -0.473307
v -0.708466 -3.489857 -0.480981
v -0.428204 -3.918060 -0.605434
v -0.453174 -3.791423 -0.661028
v -0.473307 -3.645588 -0.696417
v -0.480981 -3.489857 -0.708466
v -0.301566 -3.943030 -0.661029
v -0.316574 -3.806431 -0.729951
v -0.330083 -3.652766 -0.773158
v -0.335674 -3.489857 -0.787775
v -0.155731 -3.963163 -0.696417
v -0.162909 -3.819940 -0.773158
v -0.169868 -3.659725 -0.821923
v -0.172920 -3.489857 -0.838669
v -0.000000 -3.970838 -0.708466
v -0.000000 -3.825531 -0.787775
v -0.000000 -3.662777 -0.838669
v -0.000000 -3.489857 -0.856310
v 0.155731 -3.963163 -0.696417
v 0.162909 -3.819940 -0.773158
v 0.169868 -3.659725 -0.821923
v 0.172920 -3.489857 -0.838669
v 0.301566 -3.943030 -0.661028
v 0.316574 -3.806431 -0.729951
v 0.330083 -3.652766 -0.773158
v 0.335674 -3.489857 -0.787775
v 0.428203 -3.918060 -0.605434
v 0.453174 -3.791423 -0.661029
v 0.473306 -3.645588 -0.696417
v 0.480981 -3.489857 -0.708466
v 0.605434 -3.918060 -0.428204
v 0.661028 -3.791423 -0.453174
v 0.696416 -3.645588 -0.473307
v 0.708466 -3.489857 -0.480981
v 0.661028 -3.943030 -0.301566
v 0.729951 -3.806431 -0.316574
v 0.773158 -3.652766 -0.330083
v 0.787775 -3.489857 -0.335674
v 0.696416 -3.963163 -0.155731
v 0.773158 -3.819940 -0.162909
v 0.821923 -3.659725 -0.169868
v 0.838669 -3.489857 -0.172920
v 0.708466 -3.970838 -0.000000
v 0.787775 -3.825531 -0.000000
v 0.838669 -3.662777 -0.000000
v 0.856310 -3.489857 -0.000000
v 0.696416 -3.963163 0.155731
v 0.773158 -3.819940 0.162909
v 0.821922 -3.659725 0.169868
v 0.838669 -3.489857 0.172920
v 0.661028 -3.943030 0.301566
v 0.729951 -3.806431 0.316574
v 0.773158 -3.652766 0.330083
v 0.787775 -3.489857 0.335674
v 0.605434 -3.918060 0.428203
v 0.661028 -3.791423 0.453174
v 0.696416 -3.645588 0.473306
v 0.708466 -3.489857 0.480981
v 0.428203 -3.918060 0.605434
v 0.453174 -3.791423 0.661028
v 0.473306 -3.645588 0.696416
v 0.480981 -3.489857 0.708466
v 0.301566 -3.943030 0.661028
v 0.316574 -3.806431 0.729951
v 0.330083 -3.652766 0.773158
v 0.335674 -3.489857 0.787775
v 0.155731 -3.963163 0.696416
v 0.162909 -3.819940 0.773158
v 0.169868 -3.659725 0.821923
v 0.172920 -3.489857 0.838669
v -0.000000 -3.970838 0.708466
v -0.000000 -3.825531 0.787775
v -0.000000 -3.662777 0.838669
v -0.000000 -3.489857 0.856310
v -0.155731 -3.963163 0.696416
v -0.162909 -3.819940 0.773158
v -0.169868 -3.659725 0.821922
v -0.172920 -3.489857 0.838669
v -0.301566 -3.943030 0.661028
v -0.316574 -3.806431 0.729951
v -0.330083 -3.652766 0.773158
v -0.335674 -3.489857 0.787775
v -0.428204 -3.918060 0.605434
v -0.453174 -3.791423 0.661028
v -0.473307 -3.645588 0.696416
v -0.480981 -3.489857 0.708466
v -0.428204 -4.095291 -0.428204
v -0.301566 -4.150885 -0.453174
v -0.155731 -4.186273 -0.473307
v -0.000000 -4.198323 -0.480981
v 0.155731 -4.186273 -0.473307
v 0.301566 -4.150885 -0.453174
v 0.428203 -4.095291 -0.428204
v -0.453174 -4.150885 -0.301566
v -0.316574 -4.219808 -0.316574
v -0.162909 -4.263015 -0.330083
v -0.000000 -4.277632 -0.335674
v 0.162909 -4.263015 -0.330083
v 0.316574 -4.219808 -0.316574
v 0.453174 -4.150885 -0.301566
v -0.473307 -4.186273 -0.155731
v -0.330083 -4.263015 -0.162909
v -0.169868 -4.311779 -0.169868
v -0.000000 -4.328526 -0.172920
v 0.169868 -4.311779 -0.169868
v 0.330083 -4.263015 -0.162909
v 0.473306 -4.186273 -0.155731
v -0.480981 -4.198323 -0.000000
v -0.335674 -4.277632 -0.000000
v -0.172920 -4.328526 -0.000000
v -0.000000 -4.346167 -0.000000
v 0.172920 -4.328526 -0.000000
v 0.335674 -4.277632 -0.000000
v 0.480981 -4.198323 -0.000000
v -0.473307 -4.186273 0.155731
v -0.330083 -4.263015 0.162909
v -0.169868 -4.311779 0.169868
v -0.000000 -4.328526 0.172920
v 0.169868 -4.311779 0.169868
v 0.330083 -4.263015 0.162909
v 0.473306 -4.186273 0.155731
v -0.453174 -4.150885 0.301566
v -0.316574 -4.219808 0.316574
v -0.162909 -4.263015 0.330083
v -0.000000 -4.277632 0.335674
v 0.162909 -4.263014 0.330083
v 0.316574 -4.219808 0.316574
v 0.453174 -4.150885 0.301566
v -0.428204 -4.095291 0.428203
v -0.301566 -4.150885 0.453174
v -0.155731 -4.186273 0.473306
v -0.000000 -4.198323 0.480981
v 0.155731 -4.186273 0.473306
v 0.301566 -4.150885 0.453174
v 0.428203 -4.095291 0.428203
vn -0.5774 0.5774 0.5773
vn -0.5773 0.5774 -0.5774
vn 0.5773 0.5774 0.5774
vn 0.5774 0.5773 -0.5774
vn -0.7064 0.0450 0.7064
vn -0.6961 0.1758 0.6961
vn -0.6654 0.3385 0.6654
vn -0.6222 0.4752 0.6222
vn -0.6222 0.6222 0.4752
vn -0.6654 0.6654 0.3385
vn -0.6961 0.6961 0.1758
vn -0.7071 0.7071 -0.0000
vn -0.6961 0.6961 -0.1758
vn -0.6654 0.6654 -0.3385
vn -0.6222 0.6222 -0.4752
vn -0.6222 0.4752 -0.6222
vn -0.6654 0.3385 -0.6654
vn -0.6961 0.1758 -0.6961
vn -0.7064 0.0450 -0.7064
vn -0.4752 0.6222 -0.6222
vn -0.3385 0.6654 -0.6654
vn -0.1758 0.6961 -0.6961
vn -0.0000 0.7071 -0.7071
vn 0.1758 0.6961 -0.6961
vn 0.3385 0.6654 -0.6654
vn 0.4752 0.6222 -0.6222
vn 0.6222 0.4752 -0.6222
vn 0.6654 0.3385 -0.6654
vn 0.6961 0.1758 -0.6961
vn 0.7064 0.0450 -0.7064
vn 0.6222 0.6222 -0.4752
vn 0.6654 0.6654 -0.3385
vn 0.6961 0.6961 -0.1758
vn 0.7071 0.7071 -0.0000
vn 0.6961 0.6961 0.1758
vn 0.6654 0.6654 0.3385
vn 0.6222 0.6222 0.4752
vn 0.6222 0.4752 0.6222
vn 0.6654 0.3385 0.6654
vn 0.6961 0.1758 0.6961
vn 0.7064 0.0450 0.7064
vn 0.4752 0.6222 0.6222
vn 0.3385 0.6654 0.6654
vn 0.1758 0.6961 0.6961
vn -0.0000 0.7071 0.7071
vn -0.1758 0.6961 0.6961
vn -0.3385 0.6654 0.6654
vn -0.4752 0.6222 0.6222
vn -0.8275 0.0458 0.5595
vn -0.8151 0.1797 0.5507
vn -0.7756 0.3476 0.5269
vn -0.7150 0.4944 0.4944
vn -0.9199 0.0477 0.3893
vn -0.9046 0.1882 0.3824
vn -0.8554 0.3663 0.3663
vn -0.7756 0.5269 0.3476
vn -0.9785 0.0495 0.2001
vn -0.9607 0.1963 0.1963
vn -0.9046 0.3824 0.1882
vn -0.8151 0.5507 0.1797
vn -0.9987 0.0503 -0.0000
vn -0.9799 0.1996 -0.0000
vn -0.9213 0.3888 -0.0000
vn -0.8288 0.5595 -0.0000
vn -0.9785 0.0495 -0.2001
vn -0.9607 0.1963 -0.1963
vn -0.9046 0.3824 -0.1882
vn -0.8151 0.5507 -0.1797
vn -0.9199 0.0477 -0.3893
vn -0.9046 0.1882 -0.3824
vn -0.8554 0.3663 -0.3663
vn -0.7756 0.5269 -0.3476
vn -0.8275 0.0458 -0.5595
vn -0.8151 0.1797 -0.5507
vn -0.7756 0.3476 -0.5269
vn -0.7150 0.4944 -0.4944
vn -0.5595 0.0458 -0.8275
vn -0.5507 0.1797 -0.8151
vn -0.5269 0.3476 -0.7756
vn -0.4944 0.4944 -0.7150
vn -0.3893 0.0477 -0.9199
vn -0.3824 0.1882 -0.9046
vn -0.3663 0.3663 -0.8554
vn -0.3476 0.5269 -0.7756
vn -0.2001 0.0495 -0.9785
vn -0.1963 0.1963 -0.9607
vn -0.1882 0.3824 -0.9046
vn -0.1797 0.5507 -0.8151
vn -0.0000 0.0503 -0.9987
vn -0.0000 0.1996 -0.9799
vn -0.0000 0.3888 -0.9213
vn -0.0000 0.5595 -0.8288
vn 0.2001 0.0495 -0.9785
vn 0.1963 0.1963 -0.9607
vn 0.1882 0.3824 -0.9046
vn 0.1797 0.5507 -0.8151
vn 0.3893 0.0477 -0.9199
vn 0.3824 0.1882 -0.9046
vn 0.3663 0.3663 -0.8554
vn 0.3476 0.5269 -0.7756
vn 0.5595 0.0458 -0.8275
vn 0.5507 0.1797 -0.8151
vn 0.5269 0.3476 -0.7756
vn 0.4944 0.4944 -0.7150
vn 0.8275 0.0458 -0.5595
vn 0.8151 0.1797 -0.5507
vn 0.7756 0.3476 -0.5269
vn 0.7150 0.4944 -0.4944
vn 0.9199 0.0477 -0.3893
vn 0.9046 0.1882 -0.3824
vn 0.8554 0.3663 -0.3663
vn 0.7756 0.5269 -0.3476
vn 0.9785 0.0495 -0.2001
vn 0.9607 0.1963 -0.1963
vn 0.9046 0.3824 -0.1882
vn 0.8151 0.5507 -0.1797
vn 0.9987 0.0503 -0.0000
vn 0.9799 0.1996 -0.0000
vn 0.9213 0.3888 -0.0000
vn 0.8288 0.5595 -0.0000
vn 0.9785 0.0495 0.2001
vn 0.9607 0.1963 0.1963
vn 0.9046 0.3824 0.1882
vn 0.8151 0.5507 0.1797
vn 0.9199 0.0477 0.3893
vn 0.9046 0.1882 0.3824
vn 0.8554 0.3663 0.3663
vn 0.7756 0.5269 0.3476
vn 0.8275 0.0458 0.5595
vn 0.8151 0.1797 0.5507
vn 0.7756 0.3476 0.5269
vn 0.7150 0.4944 0.4944
vn 0.5595 0.0458 0.8275
vn 0.5507 0.1797 0.8151
vn 0.5269 0.3476 0.7756
vn 0.4944 0.4944 0.7150
vn 0.3893 0.0477 0.9199
vn 0.3824 0.1882 0.9046
vn 0.3663 0.3663 0.8554
vn 0.3476 0.5269 0.7756
vn 0.2001 0.0495 0.9785
vn 0.1963 0.1963 0.9607
vn 0.1882 0.3824 0.9046
vn 0.1797 0.5507 0.8151
vn -0.0000 0.0503 0.9987
vn -0.0000 0.1996 0.9799
vn -0.0000 0.3888 0.9213
vn -0.0000 0.5595 0.8288
vn -0.2001 0.0495 0.9785
vn -0.1963 0.1963 0.9607
vn -0.1882 0.3824 0.9046
vn -0.1797 0.5507 0.8151
vn -0.3893 0.0477 0.9199
vn -0.3824 0.1882 0.9046
vn -0.3663 0.3663 0.8554
vn -0.3476 0.5269 0.7756
vn -0.5595 0.0458 0.8275
vn -0.5507 0.1797 0.8151
vn -0.5269 0.3476 0.7756
vn -0.4944 0.4944 0.7150
vn 0.4944 0.7150 -0.4944
vn 0.3476 0.7756 -0.5269
vn 0.1797 0.8151 -0.5507
vn -0.0000 0.8288 -0.5595
vn -0.1797 0.8151 -0.5507
vn -0.3476 0.7756 -0.5269
vn -0.4944 0.7150 -0.4944
vn 0.5269 0.7756 -0.3476
vn 0.3663 0.8554 -0.3663
vn 0.1882 0.9046 -0.3824
vn -0.0000 0.9213 -0.3888
vn -0.1882 0.9046 -0.3824
vn -0.3663 0.8554 -0.3663
vn -0.5269 0.7756 -0.3476
vn 0.5507 0.8151 -0.1797
vn 0.3824 0.9046 -0.1882
vn 0.1963 0.9607 -0.1963
vn -0.0000 0.9799 -0.1996
vn -0.1963 0.9607 -0.1963
vn -0.3824 0.9046 -0.1882
vn -0.5507 0.8151 -0.1797
vn 0.5595 0.8288 -0.0000
vn 0.3888 0.9213 -0.0000
vn 0.1996 0.9799 -0.0000
vn -0.0000 1.0000 -0.0000
vn -0.1996 0.9799 -0.0000
vn -0.3888 0.9213 -0.0000
vn -0.5595 0.8288 -0.0000
vn 0.5507 0.8151 0.1797
vn 0.3824 0.9046 0.1882
vn 0.1963 0.9607 0.1963
vn -0.0000 0.9799 0.1996
vn -0.1963 0.9607 0.1963
vn -0.3824 0.9046 0.1882
vn -0.5507 0.8151 0.1797
vn 0.5269 0.7756 0.3476
vn 0.3663 0.8554 0.3663
vn 0.1882 0.9046 0.3824
vn -0.0000 0.9213 0.3888
vn -0.1882 0.9046 0.3824
vn -0.3663 0.8554 0.3663
vn -0.5269 0.7756 0.3476
vn 0.4944 0.7150 0.4944
vn 0.3476 0.7756 0.5269
vn 0.1797 0.8151 0.5507
vn -0.0000 0.8288 0.5595
vn -0.1797 0.8151 0.5507
vn -0.3476 0.7756 0.5269
vn -0.4944 0.7150 0.4944
vn -0.5774 -0.5773 -0.5774
vn -0.6222 -0.6222 -0.4752
vn -0.6654 -0.6654 -0.3385
vn -0.6961 -0.6961 -0.1758
vn -0.7071 -0.7071 -0.0000
vn -0.6961 -0.6961 0.1758
vn -0.6654 -0.6654 0.3385
vn -0.6222 -0.6222 0.4752
vn -0.5774 -0.5773 0.5774
vn -0.6222 -0.4752 0.6222
vn -0.6654 -0.3385 0.6654
vn -0.6961 -0.1758 0.6961
vn -0.7064 -0.0450 0.7064
vn -0.7064 -0.0450 -0.7064
vn -0.6961 -0.1758 -0.6961
vn -0.6654 -0.3385 -0.6654
vn -0.6222 -0.4752 -0.6222
vn 0.5774 -0.5773 -0.5773
vn 0.4752 -0.6222 -0.6222
vn 0.3385 -0.6654 -0.6654
vn 0.1758 -0.6961 -0.6961
vn -0.0000 -0.7071 -0.7071
vn -0.1758 -0.6961 -0.6961
vn -0.3385 -0.6654 -0.6654
vn -0.4752 -0.6222 -0.6222
vn 0.7064 -0.0450 -0.7064
vn 0.6961 -0.1758 -0.6961
vn 0.6654 -0.3385 -0.6654
vn 0.6222 -0.4752 -0.6222
vn 0.5774 -0.5773 0.5774
vn 0.6222 -0.6222 0.4752
vn 0.6654 -0.6654 0.3385
vn 0.6961 -0.6961 0.1758
vn 0.7071 -0.7071 -0.0000
vn 0.6961 -0.6961 -0.1758
vn 0.6654 -0.6654 -0.3385
vn 0.6222 -0.6222 -0.4752
vn 0.7064 -0.0450 0.7064
vn 0.6961 -0.1758 0.6961
vn 0.6654 -0.3385 0.6654
vn 0.6222 -0.4752 0.6222
vn -0.4752 -0.6222 0.6222
vn -0.3385 -0.6654 0.6654
vn -0.1758 -0.6961 0.6961
vn -0.0000 -0.7071 0.7071
vn 0.1758 -0.6961 0.6961
vn 0.3385 -0.6654 0.6654
vn 0.4752 -0.6222 0.6222
vn -0.7150 -0.4944 0.4944
vn -0.7756 -0.3476 0.5269
vn -0.8151 -0.1797 0.5507
vn -0.8275 -0.0458 0.5595
vn -0.7756 -0.5269 0.3476
vn -0.8554 -0.3663 0.3663
vn -0.9046 -0.1882 0.3824
vn -0.9199 -0.0477 0.3893
vn -0.8151 -0.5507 0.1797
vn -0.9046 -0.3824 0.1882
vn -0.9607 -0.1963 0.1963
vn -0.9785 -0.0495 0.2001
vn -0.8288 -0.5595 -0.0000
vn -0.9213 -0.3888 -0.0000
vn -0.9799 -0.1996 -0.0000
vn -0.9987 -0.0503 -0.0000
vn -0.8151 -0.5507 -0.1797
vn -0.9046 -0.3824 -0.1882
vn -0.9607 -0.1963 -0.1963
vn -0.9785 -0.0495 -0.2001
vn -0.7756 -0.5269 -0.3476
vn -0.8554 -0.3663 -0.3663
vn -0.9046 -0.1882 -0.3824
vn -0.9199 -0.0477 -0.3893
vn -0.7150 -0.4944 -0.4944
vn -0.7756 -0.3476 -0.5269
vn -0.8151 -0.1797 -0.5507
vn -0.8275 -0.0458 -0.5595
vn -0.4944 -0.4944 -0.7150
vn -0.5269 -0.3476 -0.7756
vn -0.5507 -0.1797 -0.8151
vn -0.5595 -0.0458 -0.8275
vn -0.3476 -0.5269 -0.7756
vn -0.3663 -0.3663 -0.8554
vn -0.3824 -0.1882 -0.9046
vn -0.3893 -0.0477 -0.9199
vn -0.1797 -0.5507 -0.8151
vn -0.1882 -0.3824 -0.9046
vn -0.1963 -0.1963 -0.9607
vn -0.2001 -0.0495 -0.9785
vn -0.0000 -0.5595 -0.8288
vn -0.0000 -0.3888 -0.9213
vn -0.0000 -0.1996 -0.9799
vn -0.0000 -0.0503 -0.9987
vn 0.1797 -0.5507 -0.8151
vn 0.1882 -0.3824 -0.9046
vn 0.1963 -0.1963 -0.9607
vn 0.2001 -0.0495 -0.9785
vn 0.3476 -0.5269 -0.7756
vn 0.3663 -0.3663 -0.8554
vn 0.3824 -0.1882 -0.9046
vn 0.3893 -0.0477 -0.9199
vn 0.4944 -0.4944 -0.7150
vn 0.5269 -0.3476 -0.7756
vn 0.5507 -0.1797 -0.8151
vn 0.5595 -0.0458 -0.8275
vn 0.7150 -0.4944 -0.4944
vn 0.7756 -0.3476 -0.5269
vn 0.8151 -0.1797 -0.5507
vn 0.8275 -0.0458 -0.5595
vn 0.7756 -0.5269 -0.3476
vn 0.8554 -0.3663 -0.3663
vn 0.9046 -0.1882 -0.3824
vn 0.9199 -0.0477 -0.3893
vn 0.8151 -0.5507 -0.1797
vn 0.9046 -0.3824 -0.1882
vn 0.9607 -0.1963 -0.1963
vn 0.9785 -0.0495 -0.2001
vn 0.8288 -0.5595 -0.0000
vn 0.9213 -0.3888 -0.0000
vn 0.9799 -0.1996 -0.0000
vn 0.9987 -0.0503 -0.0000
vn 0.8151 -0.5507 0.1797
vn 0.9046 -0.3824 0.1882
vn 0.9607 -0.1963 0.1963
vn 0.9785 -0.0495 0.2001
vn 0.7756 -0.5269 0.3476
vn 0.8554 -0.3663 0.3663
vn 0.9046 -0.1882 0.3824
vn 0.9199 -0.0477 0.3893
vn 0.7150 -0.4944 0.4944
vn 0.7756 -0.3476 0.5269
vn 0.8151 -0.1797 0.5507
vn 0.8275 -0.0458 0.5595
vn 0.4944 -0.4944 0.7150
vn 0.5269 -0.3476 0.7756
vn 0.5507 -0.1797 0.8151
vn 0.5595 -0.0458 0.8275
vn 0.3476 -0.5269 0.7756
vn 0.3663 -0.3663 0.8554
vn 0.3824 -0.1882 0.9046
vn 0.3893 -0.0477 0.9199
vn 0.1797 -0.5507 0.8151
vn 0.1882 -0.3824 0.9046
vn 0.1963 -0.1963 0.9607
vn 0.2001 -0.0495 0.9785
vn -0.0000 -0.5595 0.8288
vn -0.0000 -0.3888 0.9213
vn -0.0000 -0.1996 0.9799
vn -0.0000 -0.0503 0.9987
vn -0.1797 -0.5507 0.8151
vn -0.1882 -0.3824 0.9046
vn -0.1963 -0.1963 0.9607
vn -0.2001 -0.0495 0.9785
vn -0.3476 -0.5269 0.7756
vn -0.3663 -0.3663 0.8554
vn -0.3824 -0.1882 0.9046
vn -0.3893 -0.0477 0.9199
vn -0.4944 -0.4944 0.7150
vn -0.5269 -0.3476 0.7756
vn -0.5507 -0.1797 0.8151
vn -0.5595 -0.0458 0.8275
vn -0.4944 -0.7150 -0.4944
vn -0.3476 -0.7756 -0.5269
vn -0.1797 -0.8151 -0.5507
vn -0.0000 -0.8288 -0.5595
vn 0.1797 -0.8151 -0.5507
vn 0.3476 -0.7756 -0.5269
vn 0.4944 -0.7150 -0.4944
vn -0.5269 -0.7756 -0.3476
vn -0.3663 -0.8554 -0.3663
vn -0.1882 -0.9046 -0.3824
vn -0.0000 -0.9213 -0.3888
vn 0.1882 -0.9046 -0.3824
vn 0.3663 -0.8554 -0.3663
vn 0.5269 -0.7756 -0.3476
vn -0.5507 -0.8151 -0.1797
vn -0.3824 -0.9046 -0.1882
vn -0.1963 -0.9607 -0.1963
vn -0.0000 -0.9799 -0.1996
vn 0.1963 -0.9607 -0.1963
vn 0.3824 -0.9046 -0.1882
vn 0.5507 -0.8151 -0.1797
vn -0.5595 -0.8288 -0.0000
vn -0.3888 -0.9213 -0.0000
vn -0.1996 -0.9799 -0.0000
vn -0.0000 -1.0000 -0.0000
vn 0.1996 -0.9799 -0.0000
vn 0.3888 -0.9213 -0.0000
vn 0.5595 -0.8288 -0.0000
vn -0.5507 -0.8151 0.1797
vn -0.3824 -0.9046 0.1882
vn -0.1963 -0.9607 0.1963
vn -0.0000 -0.9799 0.1996
vn 0.1963 -0.9607 0.1963
vn 0.3824 -0.9046 0.1882
vn 0.5507 -0.8151 0.1797
vn -0.5269 -0.7756 0.3476
vn -0.3663 -0.8554 0.3663
vn -0.1882 -0.9046 0.3824
vn -0.0000 -0.9213 0.3888
vn 0.1882 -0.9046 0.3824
vn 0.3663 -0.8554 0.3663
vn 0.5269 -0.7756 0.3476
vn -0.4944 -0.7150 0.4944
vn -0.3476 -0.7756 0.5269
vn -0.1797 -0.8151 0.5507
vn -0.0000 -0.8288 0.5595
vn 0.1797 -0.8151 0.5507
vn 0.3476 -0.7756 0.5269
vn 0.4944 -0.7150 0.4944
vt 0.500000 0.031250
vt 0.531250 0.031250
vt 0.531250 0.062500
vt 0.500000 0.062500
vt 0.562500 0.031250
vt 0.562500 0.062500
vt 0.593750 0.031250
vt 0.593750 0.062500
vt 0.531250 0.093750
vt 0.500000 0.093750
vt 0.562500 0.093750
vt 0.593750 0.093750
vt 0.531250 0.125000
vt 0.500000 0.125000
vt 0.562500 0.125000
vt 0.593750 0.125000
vt 0.531250 0.156250
vt 0.500000 0.156250
vt 0.562500 0.156250
vt 0.593750 0.156250
vt 0.531250 0.187500
vt 0.500000 0.187500
vt 0.562500 0.187500
vt 0.593750 0.187500
vt 0.531250 0.218750
vt 0.500000 0.218750
vt 0.562500 0.218750
vt 0.593750 0.218750
vt 0.500000 0.000000
vt 0.531250 0.000000
vt 0.562500 0.000000
vt 0.593750 0.000000
vt 0.625000 0.000000
vt 0.625000 0.031250
vt 0.625000 0.062500
vt 0.625000 0.093750
vt 0.625000 0.125000
vt 0.625000 0.156250
vt 0.625000 0.187500
vt 0.625000 0.218750
vt 0.625000 0.250000
vt 0.593750 0.250000
vt 0.562500 0.250000
vt 0.531250 0.250000
vt 0.500000 0.250000
vt 0.500000 0.281250
vt 0.531250 0.281250
vt 0.531250 0.312500
vt 0.500000 0.312500
vt 0.562500 0.281250
vt 0.562500 0.312500
vt 0.593750 0.281250
vt 0.593750 0.312500
vt 0.531250 0.343750
vt 0.500000 0.343750
vt 0.562500 0.343750
vt 0.593750 0.343750
vt 0.531250 0.375000
vt 0.500000 0.375000
vt 0.562500 0.375000
vt 0.593750 0.375000
vt 0.531250 0.406250
vt 0.500000 0.406250
vt 0.562500 0.406250
vt 0.593750 0.406250
vt 0.531250 0.437500
vt 0.500000 0.437500
vt 0.562500 0.437500
vt 0.593750 0.437500
vt 0.531250 0.468750
vt 0.500000 0.468750
vt 0.562500 0.468750
vt 0.593750 0.468750
vt 0.625000 0.281250
vt 0.625000 0.312500
vt 0.625000 0.343750
vt 0.625000 0.375000
vt 0.625000 0.406250
vt 0.625000 0.437500
vt 0.625000 0.468750
vt 0.625000 0.500000
vt 0.593750 0.500000
vt 0.562500 0.500000
vt 0.531250 0.500000
vt 0.500000 0.500000
vt 0.500000 0.531250
vt 0.531250 0.531250
vt 0.531250 0.562500
vt 0.500000 0.562500
vt 0.562500 0.531250
vt 0.562500 0.562500
vt 0.593750 0.531250
vt 0.593750 0.562500
vt 0.531250 0.593750
vt 0.500000 0.593750
vt 0.562500 0.593750
vt 0.593750 0.593750
vt 0.531250 0.625000
vt 0.500000 0.625000
vt 0.562500 0.625000
vt 0.593750 0.625000
vt 0.531250 0.656250
vt 0.500000 0.656250
vt 0.562500 0.656250
vt 0.593750 0.656250
vt 0.531250 0.687500
vt 0.500000 0.687500
vt 0.562500 0.687500
vt 0.593750 0.687500
vt 0.531250 0.718750
vt 0.500000 0.718750
vt 0.562500 0.718750
vt 0.593750 0.718750
vt 0.625000 0.531250
vt 0.625000 0.562500
vt 0.625000 0.593750
vt 0.625000 0.625000
vt 0.625000 0.656250
vt 0.625000 0.687500
vt 0.625000 0.718750
vt 0.625000 0.750000
vt 0.593750 0.750000
vt 0.562500 0.750000
vt 0.531250 0.750000
vt 0.500000 0.750000
vt 0.500000 0.781250
vt 0.531250 0.781250
vt 0.531250 0.812500
vt 0.500000 0.812500
vt 0.562500 0.781250
vt 0.562500 0.812500
vt 0.593750 0.781250
vt 0.593750 0.812500
vt 0.531250 0.843750
vt 0.500000 0.843750
vt 0.562500 0.843750
vt 0.593750 0.843750
vt 0.531250 0.875000
vt 0.500000 0.875000
vt 0.562500 0.875000
vt 0.593750 0.875000
vt 0.531250 0.906250
vt 0.500000 0.906250
vt 0.562500 0.906250
vt 0.593750 0.906250
vt 0.531250 0.937500
vt 0.500000 0.937500
vt 0.562500 0.937500
vt 0.593750 0.937500
vt 0.531250 0.968750
vt 0.500000 0.968750
vt 0.562500 0.968750
vt 0.593750 0.968750
vt 0.625000 0.781250
vt 0.625000 0.812500
vt 0.625000 0.843750
vt 0.625000 0.875000
vt 0.625000 0.906250
vt 0.625000 0.937500
vt 0.625000 0.968750
vt 0.625000 1.000000
vt 0.593750 1.000000
vt 0.562500 1.000000
vt 0.531250 1.000000
vt 0.500000 1.000000
vt 0.656250 0.531250
vt 0.687500 0.531250
vt 0.687500 0.562500
vt 0.656250 0.562500
vt 0.718750 0.531250
vt 0.718750 0.562500
vt 0.750000 0.531250
vt 0.750000 0.562500
vt 0.781250 0.531250
vt 0.781250 0.562500
vt 0.812500 0.531250
vt 0.812500 0.562500
vt 0.843750 0.531250
vt 0.843750 0.562500
vt 0.687500 0.593750
vt 0.656250 0.593750
vt 0.718750 0.593750
vt 0.750000 0.593750
vt 0.781250 0.593750
vt 0.812500 0.593750
vt 0.843750 0.593750
vt 0.687500 0.625000
vt 0.656250 0.625000
vt 0.718750 0.625000
vt 0.750000 0.625000
vt 0.781250 0.625000
vt 0.812500 0.625000
vt 0.843750 0.625000
vt 0.687500 0.656250
vt 0.656250 0.656250
vt 0.718750 0.656250
vt 0.750000 0.656250
vt 0.781250 0.656250
vt 0.812500 0.656250
vt 0.843750 0.656250
vt 0.687500 0.687500
vt 0.656250 0.687500
vt 0.718750 0.687500
vt 0.750000 0.687500
vt 0.781250 0.687500
vt 0.812500 0.687500
vt 0.843750 0.687500
vt 0.687500 0.718750
vt 0.656250 0.718750
vt 0.718750 0.718750
vt 0.750000 0.718750
vt 0.781250 0.718750
vt 0.812500 0.718750
vt 0.843750 0.718750
vt 0.656250 0.500000
vt 0.687500 0.500000
vt 0.718750 0.500000
vt 0.750000 0.500000
vt 0.781250 0.500000
vt 0.812500 0.500000
vt 0.843750 0.500000
vt 0.875000 0.500000
vt 0.875000 0.531250
vt 0.875000 0.562500
vt 0.875000 0.593750
vt 0.875000 0.625000
vt 0.875000 0.656250
vt 0.875000 0.687500
vt 0.875000 0.718750
vt 0.875000 0.750000
vt 0.843750 0.750000
vt 0.812500 0.750000
vt 0.781250 0.750000
vt 0.750000 0.750000
vt 0.718750 0.750000
vt 0.687500 0.750000
vt 0.656250 0.750000
vt 0.406250 0.031250
vt 0.437500 0.031250
vt 0.437500 0.062500
vt 0.406250 0.062500
vt 0.468750 0.031250
vt 0.468750 0.062500
vt 0.437500 0.093750
vt 0.406250 0.093750
vt 0.468750 0.093750
vt 0.437500 0.125000
vt 0.406250 0.125000
vt 0.468750 0.125000
vt 0.437500 0.156250
vt 0.406250 0.156250
vt 0.468750 0.156250
vt 0.437500 0.187500
vt 0.406250 0.187500
vt 0.468750 0.187500
vt 0.437500 0.218750
vt 0.406250 0.218750
vt 0.468750 0.218750
vt 0.375000 0.000000
vt 0.406250 0.000000
vt 0.375000 0.031250
vt 0.437500 0.000000
vt 0.468750 0.000000
vt 0.468750 0.250000
vt 0.437500 0.250000
vt 0.406250 0.250000
vt 0.375000 0.218750
vt 0.375000 0.250000
vt 0.375000 0.187500
vt 0.375000 0.156250
vt 0.375000 0.125000
vt 0.375000 0.093750
vt 0.375000 0.062500
vt 0.406250 0.281250
vt 0.437500 0.281250
vt 0.437500 0.312500
vt 0.406250 0.312500
vt 0.468750 0.281250
vt 0.468750 0.312500
vt 0.437500 0.343750
vt 0.406250 0.343750
vt 0.468750 0.343750
vt 0.437500 0.375000
vt 0.406250 0.375000
vt 0.468750 0.375000
vt 0.437500 0.406250
vt 0.406250 0.406250
vt 0.468750 0.406250
vt 0.437500 0.437500
vt 0.406250 0.437500
vt 0.468750 0.437500
vt 0.437500 0.468750
vt 0.406250 0.468750
vt 0.468750 0.468750
vt 0.375000 0.281250
vt 0.468750 0.500000
vt 0.437500 0.500000
vt 0.406250 0.500000
vt 0.375000 0.468750
vt 0.375000 0.500000
vt 0.375000 0.437500
vt 0.375000 0.406250
vt 0.375000 0.375000
vt 0.375000 0.343750
vt 0.375000 0.312500
vt 0.406250 0.531250
vt 0.437500 0.531250
vt 0.437500 0.562500
vt 0.406250 0.562500
vt 0.468750 0.531250
vt 0.468750 0.562500
vt 0.437500 0.593750
vt 0.406250 0.593750
vt 0.468750 0.593750
vt 0.437500 0.625000
vt 0.406250 0.625000
vt 0.468750 0.625000
vt 0.437500 0.656250
vt 0.406250 0.656250
vt 0.468750 0.656250
vt 0.437500 0.687500
vt 0.406250 0.687500
vt 0.468750 0.687500
vt 0.437500 0.718750
vt 0.406250 0.718750
vt 0.468750 0.718750
vt 0.375000 0.531250
vt 0.468750 0.750000
vt 0.437500 0.750000
vt 0.406250 0.750000
vt 0.375000 0.718750
vt 0.375000 0.750000
vt 0.375000 0.687500
vt 0.375000 0.656250
vt 0.375000 0.625000
vt 0.375000 0.593750
vt 0.375000 0.562500
vt 0.406250 0.781250
vt 0.437500 0.781250
vt 0.437500 0.812500
vt 0.406250 0.812500
vt 0.468750 0.781250
vt 0.468750 0.812500
vt 0.437500 0.843750
vt 0.406250 0.843750
vt 0.468750 0.843750
vt 0.437500 0.875000
vt 0.406250 0.875000
vt 0.468750 0.875000
vt 0.437500 0.906250
vt 0.406250 0.906250
vt 0.468750 0.906250
vt 0.437500 0.937500
vt 0.406250 0.937500
vt 0.468750 0.937500
vt 0.437500 0.968750
vt 0.406250 0.968750
vt 0.468750 0.968750
vt 0.375000 0.781250
vt 0.468750 1.000000
vt 0.437500 1.000000
vt 0.406250 1.000000
vt 0.375000 0.968750
vt 0.375000 1.000000
vt 0.375000 0.937500
vt 0.375000 0.906250
vt 0.375000 0.875000
vt 0.375000 0.843750
vt 0.375000 0.812500
vt 0.156250 0.531250
vt 0.187500 0.531250
vt 0.187500 0.562500
vt 0.156250 0.562500
vt 0.218750 0.531250
vt 0.218750 0.562500
vt 0.250000 0.531250
vt 0.250000 0.562500
vt 0.281250 0.531250
vt 0.281250 0.562500
vt 0.312500 0.531250
vt 0.312500 0.562500
vt 0.343750 0.531250
vt 0.343750 0.562500
vt 0.187500 0.593750
vt 0.156250 0.593750
vt 0.218750 0.593750
vt 0.250000 0.593750
vt 0.281250 0.593750
vt 0.312500 0.593750
vt 0.343750 0.593750
vt 0.187500 0.625000
vt 0.156250 0.625000
vt 0.218750 0.625000
vt 0.250000 0.625000
vt 0.281250 0.625000
vt 0.312500 0.625000
vt 0.343750 0.625000
vt 0.187500 0.656250
vt 0.156250 0.656250
vt 0.218750 0.656250
vt 0.250000 0.656250
vt 0.281250 0.656250
vt 0.312500 0.656250
vt 0.343750 0.656250
vt 0.187500 0.687500
vt 0.156250 0.687500
vt 0.218750 0.687500
vt 0.250000 0.687500
vt 0.281250 0.687500
vt 0.312500 0.687500
vt 0.343750 0.687500
vt 0.187500 0.718750
vt 0.156250 0.718750
vt 0.218750 0.718750
vt 0.250000 0.718750
vt 0.281250 0.718750
vt 0.312500 0.718750
vt 0.343750 0.718750
vt 0.125000 0.500000
vt 0.156250 0.500000
vt 0.125000 0.531250
vt 0.187500 0.500000
vt 0.218750 0.500000
vt 0.250000 0.500000
vt 0.281250 0.500000
vt 0.312500 0.500000
vt 0.343750 0.500000
vt 0.343750 0.750000
vt 0.312500 0.750000
vt 0.281250 0.750000
vt 0.250000 0.750000
vt 0.218750 0.750000
vt 0.187500 0.750000
vt 0.156250 0.750000
vt 0.125000 0.718750
vt 0.125000 0.750000
vt 0.125000 0.687500
vt 0.125000 0.656250
vt 0.125000 0.625000
vt 0.125000 0.593750
vt 0.125000 0.562500
s 1
f 49/1/49 50/2/50 54/3/54 53/4/53
f 50/2/50 51/5/51 55/6/55 54/3/54
f 51/5/51 52/7/52 56/8/56 55/6/55
f 53/4/53 54/3/54 58/9/58 57/10/57
f 54/3/54 55/6/55 59/11/59 58/9/58
f 55/6/55 56/8/56 60/12/60 59/11/59
f 57/10/57 58/9/58 62/13/62 61/14/61
f 58/9/58 59/11/59 63/15/63 62/13/62
f 59/11/59 60/12/60 64/16/64 63/15/63
f 61/14/61 62/13/62 66/17/66 65/18/65
f 62/13/62 63/15/63 67/19/67 66/17/66
f 63/15/63 64/16/64 68/20/68 67/19/67
f 65/18/65 66/17/66 70/21/70 69/22/69
f 66/17/66 67/19/67 71/23/71 70/21/70
f 67/19/67 68/20/68 72/24/72 71/23/71
f 69/22/69 70/21/70 74/25/74 73/26/73
f 70/21/70 71/23/71 75/27/75 74/25/74
f 71/23/71 72/24/72 76/28/76 75/27/75
f 5/29/5 6/30/6 50/2/50 49/1/49
f 6/30/6 7/31/7 51/5/51 50/2/50
f 7/31/7 8/32/8 52/7/52 51/5/51
f 8/32/8 1/33/1 9/34/9 52/7/52
f 52/7/52 9/34/9 10/35/10 56/8/56
f 56/8/56 10/35/10 11/36/11 60/12/60
f 60/12/60 11/36/11 12/37/12 64/16/64
f 64/16/64 12/37/12 13/38/13 68/20/68
f 68/20/68 13/38/13 14/39/14 72/24/72
f 72/24/72 14/39/14 15/40/15 76/28/76
f 76/28/76 15/40/15 2/41/2 16/42/16
f 75/27/75 76/28/76 16/42/16 17/43/17
f 74/25/74 75/27/75 17/43/17 18/44/18
f 73/26/73 74/25/74 18/44/18 19/45/19
f 77/46/77 78/47/78 82/48/82 81/49/81
f 78/47/78 79/50/79 83/51/83 82/48/82
f 79/50/79 80/52/80 84/53/84 83/51/83
f 81/49/81 82/48/82 86/54/86 85/55/85
f 82/48/82 83/51/83 87/56/87 86/54/86
f 83/51/83 84/53/84 88/57/88 87/56/87
f 85/55/85 86/54/86 90/58/90 89/59/89
f 86/54/86 87/56/87 91/60/91 90/58/90
f 87/56/87 88/57/88 92/61/92 91/60/91
f 89/59/89 90/58/90 94/62/94 93/63/93
f 90/58/90 91/60/91 95/64/95 94/62/94
f 91/60/91 92/61/92 96/65/96 95/64/95
f 93/63/93 94/62/94 98/66/98 97/67/97
f 94/62/94 95/64/95 99/68/99 98/66/98
f 95/64/95 96/65/96 100/69/100 99/68/99
f 97/67/97 98/66/98 102/70/102 101/71/101
f 98/66/98 99/68/99 103/72/103 102/70/102
f 99/68/99 100/69/100 104/73/104 103/72/103
f 19/45/19 18/44/18 78/47/78 77/46/77
f 18/44/18 17/43/17 79/50/79 78/47/78
f 17/43/17 16/42/16 80/52/80 79/50/79
f 16/42/16 2/41/2 20/74/20 80/52/80
f 80/52/80 20/74/20 21/75/21 84/53/84
f 84/53/84 21/75/21 22/76/22 88/57/88
f 88/57/88 22/76/22 23/77/23 92/61/92
f 92/61/92 23/77/23 24/78/24 96/65/96
f 96/65/96 24/78/24 25/79/25 100/69/100
f 100/69/100 25/79/25 26/80/26 104/73/104
f 104/73/104 26/80/26 4/81/4 27/82/27
f 103/72/103 104/73/104 27/82/27 28/83/28
f 102/70/102 103/72/103 28/83/28 29/84/29
f 101/71/101 102/70/102 29/84/29 30/85/30
f 105/86/105 106/87/106 110/88/110 109/89/109
f 106/87/106 107/90/107 111/91/111 110/88/110
f 107/90/107 108/92/108 112/93/112 111/91/111
f 109/89/109 110/88/110 114/94/114 113/95/113
f 110/88/110 111/91/111 115/96/115 114/94/114
f 111/91/111 112/93/112 116/97/116 115/96/115
f 113/95/113 114/94/114 118/98/118 117/99/117
f 114/94/114 115/96/115 119/100/119 118/98/118
f 115/96/115 116/97/116 120/101/120 119/100/119
f 117/99/117 118/98/118 122/102/122 121/103/121
f 118/98/118 119/100/119 123/104/123 122/102/122
f 119/100/119 120/101/120 124/105/124 123/104/123
f 121/103/121 122/102/122 126/106/126 125/107/125
f 122/102/122 123/104/123 127/108/127 126/106/126
f 123/104/123 124/105/124 128/109/128 127/108/127
f 125/107/125 126/106/126 130/110/130 129/111/129
f 126/106/126 127/108/127 131/112/131 130/110/130
f 127/108/127 128/109/128 132/113/132 131/112/131
f 30/85/30 29/84/29 106/87/106 105/86/105
f 29/84/29 28/83/28 107/90/107 106/87/106
f 28/83/28 27/82/27 108/92/108 107/90/107
f 27/82/27 4/81/4 31/114/31 108/92/108
f 108/92/108 31/114/31 32/115/32 112/93/112
f 112/93/112 32/115/32 33/116/33 116/97/116
f 116/97/116 33/116/33 34/117/34 120/101/120
f 120/101/120 34/117/34 35/118/35 124/105/124
f 124/105/124 35/118/35 36/119/36 128/109/128
f 128/109/128 36/119/36 37/120/37 132/113/132
f 132/113/132 37/120/37 3/121/3 38/122/38
f 131/112/131 132/113/132 38/122/38 39/123/39
f 130/110/130 131/112/131 39/123/39 40/124/40
f 129/111/129 130/110/130 40/124/40 41/125/41
f 133/126/133 134/127/134 138/128/138 137/129/137
f 134/127/134 135/130/135 139/131/139 138/128/138
f 135/130/135 136/132/136 140/133/140 139/131/139
f 137/129/137 138/128/138 142/134/142 141/135/141
f 138/128/138 139/131/139 143/136/143 142/134/142
f 139/131/139 140/133/140 144/137/144 143/136/143
f 141/135/141 142/134/142 146/138/146 145/139/145
f 142/134/142 143/136/143 147/140/147 146/138/146
f 143/136/143 144/137/144 148/141/148 147/140/147
f 145/139/145 146/138/146 150/142/150 149/143/149
f 146/138/146 147/140/147 151/144/151 150/142/150
f 147/140/147 148/141/148 152/145/152 151/144/151
f 149/143/149 150/142/150 154/146/154 153/147/153
f 150/142/150 151/144/151 155/148/155 154/146/154
f 151/144/151 152/145/152 156/149/156 155/148/155
f 153/147/153 154/146/154 158/150/158 157/151/157
f 154/146/154 155/148/155 159/152/159 158/150/158
f 155/148/155 156/149/156 160/153/160 159/152/159
f 41/125/41 40/124/40 134/127/134 133/126/133
f 40/124/40 39/123/39 135/130/135 134/127/134
f 39/123/39 38/122/38 136/132/136 135/130/135
f 38/122/38 3/121/3 42/154/42 136/132/136
f 136/132/136 42/154/42 43/155/43 140/133/140
f 140/133/140 43/155/43 44/156/44 144/137/144
f 144/137/144 44/156/44 45/157/45 148/141/148
f 148/141/148 45/157/45 46/158/46 152/145/152
f 152/145/152 46/158/46 47/159/47 156/149/156
f 156/149/156 47/159/47 48/160/48 160/153/160
f 160/153/160 48/160/48 1/161/1 8/162/8
f 159/152/159 160/153/160 8/162/8 7/163/7
f 158/150/158 159/152/159 7/163/7 6/164/6
f 157/151/157 158/150/158 6/164/6 5/165/5
f 137/129/137 141/135/141 353/135/353 349/129/349
f 141/135/141 145/139/145 357/139/357 353/135/353
f 49/1/49 53/4/53 265/4/265 261/1/261
f 145/139/145 149/143/149 361/143/361 357/139/357
f 53/4/53 57/10/57 269/10/269 265/4/265
f 149/143/149 153/147/153 365/147/365 361/143/361
f 57/10/57 61/14/61 273/14/273 269/10/269
f 157/151/157 5/165/5 222/165/222 369/151/369
f 153/147/153 157/151/157 369/151/369 365/147/365
f 61/14/61 65/18/65 277/18/277 273/14/273
f 41/125/41 133/126/133 345/126/345 247/125/247
f 65/18/65 69/22/69 281/22/281 277/18/277
f 73/26/73 19/45/19 223/45/223 285/26/285
f 69/22/69 73/26/73 285/26/285 281/22/281
f 5/29/5 49/1/49 261/1/261 222/29/222
f 105/86/105 109/89/109 321/89/321 317/86/317
f 109/89/109 113/95/113 325/95/325 321/89/321
f 113/95/113 117/99/117 329/99/329 325/95/325
f 117/99/117 121/103/121 333/103/333 329/99/329
f 121/103/121 125/107/125 337/107/337 333/103/333
f 129/111/129 41/125/41 247/125/247 341/111/341
f 125/107/125 129/111/129 341/111/341 337/107/337
f 30/85/30 105/86/105 317/86/317 235/85/235
f 77/46/77 81/49/81 293/49/293 289/46/289
f 81/49/81 85/55/85 297/55/297 293/49/293
f 85/55/85 89/59/89 301/59/301 297/55/297
f 89/59/89 93/63/93 305/63/305 301/59/301
f 93/63/93 97/67/97 309/67/309 305/63/305
f 101/71/101 30/85/30 235/85/235 313/71/313
f 97/67/97 101/71/101 313/71/313 309/67/309
f 19/45/19 77/46/77 289/46/289 223/45/223
f 133/126/133 137/129/137 349/129/349 345/126/345
f 161/166/161 162/167/162 169/168/169 168/169/168
f 162/167/162 163/170/163 170/171/170 169/168/169
f 163/170/163 164/172/164 171/173/171 170/171/170
f 164/172/164 165/174/165 172/175/172 171/173/171
f 165/174/165 166/176/166 173/177/173 172/175/172
f 166/176/166 167/178/167 174/179/174 173/177/173
f 168/169/168 169/168/169 176/180/176 175/181/175
f 169/168/169 170/171/170 177/182/177 176/180/176
f 170/171/170 171/173/171 178/183/178 177/182/177
f 171/173/171 172/175/172 179/184/179 178/183/178
f 172/175/172 173/177/173 180/185/180 179/184/179
f 173/177/173 174/179/174 181/186/181 180/185/180
f 175/181/175 176/180/176 183/187/183 182/188/182
f 176/180/176 177/182/177 184/189/184 183/187/183
f 177/182/177 178/183/178 185/190/185 184/189/184
f 178/183/178 179/184/179 186/191/186 185/190/185
f 179/184/179 180/185/180 187/192/187 186/191/186
f 180/185/180 181/186/181 188/193/188 187/192/187
f 182/188/182 183/187/183 190/194/190 189/195/189
f 183/187/183 184/189/184 191/196/191 190/194/190
f 184/189/184 185/190/185 192/197/192 191/196/191
f 185/190/185 186/191/186 193/198/193 192/197/192
f 186/191/186 187/192/187 194/199/194 193/198/193
f 187/192/187 188/193/188 195/200/195 194/199/194
f 189/195/189 190/194/190 197/201/197 196/202/196
f 190/194/190 191/196/191 198/203/198 197/201/197
f 191/196/191 192/197/192 199/204/199 198/203/198
f 192/197/192 193/198/193 200/205/200 199/204/199
f 193/198/193 194/199/194 201/206/201 200/205/200
f 194/199/194 195/200/195 202/207/202 201/206/201
f 196/202/196 197/201/197 204/208/204 203/209/203
f 197/201/197 198/203/198 205/210/205 204/208/204
f 198/203/198 199/204/199 206/211/206 205/210/205
f 199/204/199 200/205/200 207/212/207 206/211/206
f 200/205/200 201/206/201 208/213/208 207/212/207
f 201/206/201 202/207/202 209/214/209 208/213/208
f 4/81/4 26/215/26 161/166/161 31/114/31
f 26/215/26 25/216/25 162/167/162 161/166/161
f 25/216/25 24/217/24 163/170/163 162/167/162
f 24/217/24 23/218/23 164/172/164 163/170/163
f 23/218/23 22/219/22 165/174/165 164/172/164
f 22/219/22 21/220/21 166/176/166 165/174/165
f 21/220/21 20/221/20 167/178/167 166/176/166
f 20/221/20 2/222/2 15/223/15 167/178/167
f 167/178/167 15/223/15 14/224/14 174/179/174
f 174/179/174 14/224/14 13/225/13 181/186/181
f 181/186/181 13/225/13 12/226/12 188/193/188
f 188/193/188 12/226/12 11/227/11 195/200/195
f 195/200/195 11/227/11 10/228/10 202/207/202
f 202/207/202 10/228/10 9/229/9 209/214/209
f 209/214/209 9/229/9 1/230/1 48/231/48
f 208/213/208 209/214/209 48/231/48 47/232/47
f 207/212/207 208/213/208 47/232/47 46/233/46
f 206/211/206 207/212/207 46/233/46 45/234/45
f 205/210/205 206/211/206 45/234/45 44/235/44
f 204/208/204 205/210/205 44/235/44 43/236/43
f 203/209/203 204/208/204 43/236/43 42/237/42
f 37/120/37 203/209/203 42/237/42 3/121/3
f 36/119/36 196/202/196 203/209/203 37/120/37
f 35/118/35 189/195/189 196/202/196 36/119/36
f 34/117/34 182/188/182 189/195/189 35/118/35
f 33/116/33 175/181/175 182/188/182 34/117/34
f 32/115/32 168/169/168 175/181/175 33/116/33
f 31/114/31 161/166/161 168/169/168 32/115/32
f 258/238/258 259/239/259 263/240/263 262/241/262
f 259/239/259 260/242/260 264/243/264 263/240/263
f 260/242/260 261/1/261 265/4/265 264/243/264
f 262/241/262 263/240/263 267/244/267 266/245/266
f 263/240/263 264/243/264 268/246/268 267/244/267
f 264/243/264 265/4/265 269/10/269 268/246/268
f 266/245/266 267/244/267 271/247/271 270/248/270
f 267/244/267 268/246/268 272/249/272 271/247/271
f 268/246/268 269/10/269 273/14/273 272/249/272
f 270/248/270 271/247/271 275/250/275 274/251/274
f 271/247/271 272/249/272 276/252/276 275/250/275
f 272/249/272 273/14/273 277/18/277 276/252/276
f 274/251/274 275/250/275 279/253/279 278/254/278
f 275/250/275 276/252/276 280/255/280 279/253/279
f 276/252/276 277/18/277 281/22/281 280/255/280
f 278/254/278 279/253/279 283/256/283 282/257/282
f 279/253/279 280/255/280 284/258/284 283/256/283
f 280/255/280 281/22/281 285/26/285 284/258/284
f 218/259/218 219/260/219 258/238/258 217/261/217
f 219/260/219 220/262/220 259/239/259 258/238/258
f 220/262/220 221/263/221 260/242/260 259/239/259
f 221/263/221 222/29/222 261/1/261 260/242/260
f 284/258/284 285/26/285 223/45/223 224/264/224
f 283/256/283 284/258/284 224/264/224 225/265/225
f 282/257/282 283/256/283 225/265/225 226/266/226
f 211/267/211 282/257/282 226/266/226 210/268/210
f 212/269/212 278/254/278 282/257/282 211/267/211
f 213/270/213 274/251/274 278/254/278 212/269/212
f 214/271/214 270/248/270 274/251/274 213/270/213
f 215/272/215 266/245/266 270/248/270 214/271/214
f 216/273/216 262/241/262 266/245/266 215/272/215
f 217/261/217 258/238/258 262/241/262 216/273/216
f 286/274/286 287/275/287 291/276/291 290/277/290
f 287/275/287 288/278/288 292/279/292 291/276/291
f 288/278/288 289/46/289 293/49/293 292/279/292
f 290/277/290 291/276/291 295/280/295 294/281/294
f 291/276/291 292/279/292 296/282/296 295/280/295
f 292/279/292 293/49/293 297/55/297 296/282/296
f 294/281/294 295/280/295 299/283/299 298/284/298
f 295/280/295 296/282/296 300/285/300 299/283/299
f 296/282/296 297/55/297 301/59/301 300/285/300
f 298/284/298 299/283/299 303/286/303 302/287/302
f 299/283/299 300/285/300 304/288/304 303/286/303
f 300/285/300 301/59/301 305/63/305 304/288/304
f 302/287/302 303/286/303 307/289/307 306/290/306
f 303/286/303 304/288/304 308/291/308 307/289/307
f 304/288/304 305/63/305 309/67/309 308/291/308
f 306/290/306 307/289/307 311/292/311 310/293/310
f 307/289/307 308/291/308 312/294/312 311/292/311
f 308/291/308 309/67/309 313/71/313 312/294/312
f 210/268/210 226/266/226 286/274/286 234/295/234
f 226/266/226 225/265/225 287/275/287 286/274/286
f 225/265/225 224/264/224 288/278/288 287/275/287
f 224/264/224 223/45/223 289/46/289 288/278/288
f 312/294/312 313/71/313 235/85/235 236/296/236
f 311/292/311 312/294/312 236/296/236 237/297/237
f 310/293/310 311/292/311 237/297/237 238/298/238
f 228/299/228 310/293/310 238/298/238 227/300/227
f 229/301/229 306/290/306 310/293/310 228/299/228
f 230/302/230 302/287/302 306/290/306 229/301/229
f 231/303/231 298/284/298 302/287/302 230/302/230
f 232/304/232 294/281/294 298/284/298 231/303/231
f 233/305/233 290/277/290 294/281/294 232/304/232
f 234/295/234 286/274/286 290/277/290 233/305/233
f 314/306/314 315/307/315 319/308/319 318/309/318
f 315/307/315 316/310/316 320/311/320 319/308/319
f 316/310/316 317/86/317 321/89/321 320/311/320
f 318/309/318 319/308/319 323/312/323 322/313/322
f 319/308/319 320/311/320 324/314/324 323/312/323
f 320/311/320 321/89/321 325/95/325 324/314/324
f 322/313/322 323/312/323 327/315/327 326/316/326
f 323/312/323 324/314/324 328/317/328 327/315/327
f 324/314/324 325/95/325 329/99/329 328/317/328
f 326/316/326 327/315/327 331/318/331 330/319/330
f 327/315/327 328/317/328 332/320/332 331/318/331
f 328/317/328 329/99/329 333/103/333 332/320/332
f 330/319/330 331/318/331 335/321/335 334/322/334
f 331/318/331 332/320/332 336/323/336 335/321/335
f 332/320/332 333/103/333 337/107/337 336/323/336
f 334/322/334 335/321/335 339/324/339 338/325/338
f 335/321/335 336/323/336 340/326/340 339/324/339
f 336/323/336 337/107/337 341/111/341 340/326/340
f 227/300/227 238/298/238 314/306/314 246/327/246
f 238/298/238 237/297/237 315/307/315 314/306/314
f 237/297/237 236/296/236 316/310/316 315/307/315
f 236/296/236 235/85/235 317/86/317 316/310/316
f 340/326/340 341/111/341 247/125/247 248/328/248
f 339/324/339 340/326/340 248/328/248 249/329/249
f 338/325/338 339/324/339 249/329/249 250/330/250
f 240/331/240 338/325/338 250/330/250 239/332/239
f 241/333/241 334/322/334 338/325/338 240/331/240
f 242/334/242 330/319/330 334/322/334 241/333/241
f 243/335/243 326/316/326 330/319/330 242/334/242
f 244/336/244 322/313/322 326/316/326 243/335/243
f 245/337/245 318/309/318 322/313/322 244/336/244
f 246/327/246 314/306/314 318/309/318 245/337/245
f 342/338/342 343/339/343 347/340/347 346/341/346
f 343/339/343 344/342/344 348/343/348 347/340/347
f 344/342/344 345/126/345 349/129/349 348/343/348
f 346/341/346 347/340/347 351/344/351 350/345/350
f 347/340/347 348/343/348 352/346/352 351/344/351
f 348/343/348 349/129/349 353/135/353 352/346/352
f 350/345/350 351/344/351 355/347/355 354/348/354
f 351/344/351 352/346/352 356/349/356 355/347/355
f 352/346/352 353/135/353 357/139/357 356/349/356
f 354/348/354 355/347/355 359/350/359 358/351/358
f 355/347/355 356/349/356 360/352/360 359/350/359
f 356/349/356 357/139/357 361/143/361 360/352/360
f 358/351/358 359/350/359 363/353/363 362/354/362
f 359/350/359 360/352/360 364/355/364 363/353/363
f 360/352/360 361/143/361 365/147/365 364/355/364
f 362/354/362 363/353/363 367/356/367 366/357/366
f 363/353/363 364/355/364 368/358/368 367/356/367
f 364/355/364 365/147/365 369/151/369 368/358/368
f 239/332/239 250/330/250 342/338/342 257/359/257
f 250/330/250 249/329/249 343/339/343 342/338/342
f 249/329/249 248/328/248 344/342/344 343/339/343
f 248/328/248 247/125/247 345/126/345 344/342/344
f 368/358/368 369/151/369 222/165/222 221/360/221
f 367/356/367 368/358/368 221/360/221 220/361/220
f 366/357/366 367/356/367 220/361/220 219/362/219
f 251/363/251 366/357/366 219/362/219 218/364/218
f 252/365/252 362/354/362 366/357/366 251/363/251
f 253/366/253 358/351/358 362/354/362 252/365/252
f 254/367/254 354/348/354 358/351/358 253/366/253
f 255/368/255 350/345/350 354/348/354 254/367/254
f 256/369/256 346/341/346 350/345/350 255/368/255
f 257/359/257 342/338/342 346/341/346 256/369/256
f 370/370/370 371/371/371 378/372/378 377/373/377
f 371/371/371 372/374/372 379/375/379 378/372/378
f 372/374/372 373/376/373 380/377/380 379/375/379
f 373/376/373 374/378/374 381/379/381 380/377/380
f 374/378/374 375/380/375 382/381/382 381/379/381
f 375/380/375 376/382/376 383/383/383 382/381/382
f 377/373/377 378/372/378 385/384/385 384/385/384
f 378/372/378 379/375/379 386/386/386 385/384/385
f 379/375/379 380/377/380 387/387/387 386/386/386
f 380/377/380 381/379/381 388/388/388 387/387/387
f 381/379/381 382/381/382 389/389/389 388/388/388
f 382/381/382 383/383/383 390/390/390 389/389/389
f 384/385/384 385/384/385 392/391/392 391/392/391
f 385/384/385 386/386/386 393/393/393 392/391/392
f 386/386/386 387/387/387 394/394/394 393/393/393
f 387/387/387 388/388/388 395/395/395 394/394/394
f 388/388/388 389/389/389 396/396/396 395/395/395
f 389/389/389 390/390/390 397/397/397 396/396/396
f 391/392/391 392/391/392 399/398/399 398/399/398
f 392/391/392 393/393/393 400/400/400 399/398/399
f 393/393/393 394/394/394 401/401/401 400/400/400
f 394/394/394 395/395/395 402/402/402 401/401/401
f 395/395/395 396/396/396 403/403/403 402/402/402
f 396/396/396 397/397/397 404/404/404 403/403/403
f 398/399/398 399/398/399 406/405/406 405/406/405
f 399/398/399 400/400/400 407/407/407 406/405/406
f 400/400/400 401/401/401 408/408/408 407/407/407
f 401/401/401 402/402/402 409/409/409 408/408/408
f 402/402/402 403/403/403 410/410/410 409/409/409
f 403/403/403 404/404/404 411/411/411 410/410/410
f 405/406/405 406/405/406 413/412/413 412/413/412
f 406/405/406 407/407/407 414/414/414 413/412/413
f 407/407/407 408/408/408 415/415/415 414/414/414
f 408/408/408 409/409/409 416/416/416 415/415/415
f 409/409/409 410/410/410 417/417/417 416/416/416
f 410/410/410 411/411/411 418/418/418 417/417/417
f 210/419/210 234/420/234 370/370/370 211/421/211
f 234/420/234 233/422/233 371/371/371 370/370/370
f 233/422/233 232/423/232 372/374/372 371/371/371
f 232/423/232 231/424/231 373/376/373 372/374/372
f 231/424/231 230/425/230 374/378/374 373/376/373
f 230/425/230 229/426/229 375/380/375 374/378/374
f 229/426/229 228/427/228 376/382/376 375/380/375
f 228/427/228 227/300/227 246/327/246 376/382/376
f 376/382/376 246/327/246 245/337/245 383/383/383
f 383/383/383 245/337/245 244/336/244 390/390/390
f 390/390/390 244/336/244 243/335/243 397/397/397
f 397/397/397 243/335/243 242/334/242 404/404/404
f 404/404/404 242/334/242 241/333/241 411/411/411
f 411/411/411 241/333/241 240/331/240 418/418/418
f 418/418/418 240/331/240 239/332/239 257/428/257
f 417/417/417 418/418/418 257/428/257 256/429/256
f 416/416/416 417/417/417 256/429/256 255/430/255
f 415/415/415 416/416/416 255/430/255 254/431/254
f 414/414/414 415/415/415 254/431/254 253/432/253
f 413/412/413 414/414/414 253/432/253 252/433/252
f 412/413/412 413/412/413 252/433/252 251/434/251
f 217/435/217 412/413/412 251/434/251 218/436/218
f 216/437/216 405/406/405 412/413/412 217/435/217
f 215/438/215 398/399/398 405/406/405 216/437/216
f 214/439/214 391/392/391 398/399/398 215/438/215
f 213/440/213 384/385/384 391/392/391 214/439/214
f 212/441/212 377/373/377 384/385/384 213/440/213
f 211/421/211 370/370/370 377/373/377 212/441/212
